<svg width="75" height="75" viewBox="0 0 75 75" fill="none" xmlns="http://www.w3.org/2000/svg">
<rect x="1" y="1" width="73" height="73" rx="14" stroke="black" stroke-width="2"/>
<path d="M48.0909 26.0909C47.8182 23.7879 46.7121 22 44.7727 20.7273C42.8333 19.4545 40.4545 18.8182 37.6364 18.8182C35.5758 18.8182 33.7727 19.1515 32.2273 19.8182C30.697 20.4848 29.5 21.4015 28.6364 22.5682C27.7879 23.7348 27.3636 25.0606 27.3636 26.5455C27.3636 27.7879 27.6591 28.8561 28.25 29.75C28.8561 30.6288 29.6288 31.3636 30.5682 31.9545C31.5076 32.5303 32.4924 33.0076 33.5227 33.3864C34.553 33.75 35.5 34.0455 36.3636 34.2727L41.0909 35.5455C42.303 35.8636 43.6515 36.303 45.1364 36.8636C46.6364 37.4242 48.0682 38.1894 49.4318 39.1591C50.8106 40.1136 51.947 41.3409 52.8409 42.8409C53.7349 44.3409 54.1818 46.1818 54.1818 48.3636C54.1818 50.8788 53.5227 53.1515 52.2045 55.1818C50.9015 57.2121 48.9924 58.8258 46.4773 60.0227C43.9773 61.2197 40.9394 61.8182 37.3636 61.8182C34.0303 61.8182 31.1439 61.2803 28.7045 60.2045C26.2803 59.1288 24.3712 57.6288 22.9773 55.7045C21.5985 53.7803 20.8182 51.5455 20.6364 49H26.4545C26.6061 50.7576 27.197 52.2121 28.2273 53.3636C29.2727 54.5 30.5909 55.3485 32.1818 55.9091C33.7879 56.4545 35.5152 56.7273 37.3636 56.7273C39.5152 56.7273 41.447 56.3788 43.1591 55.6818C44.8712 54.9697 46.2273 53.9848 47.2273 52.7273C48.2273 51.4545 48.7273 49.9697 48.7273 48.2727C48.7273 46.7273 48.2955 45.4697 47.4318 44.5C46.5682 43.5303 45.4318 42.7424 44.0227 42.1364C42.6136 41.5303 41.0909 41 39.4545 40.5455L33.7273 38.9091C30.0909 37.8636 27.2121 36.3712 25.0909 34.4318C22.9697 32.4924 21.9091 29.9545 21.9091 26.8182C21.9091 24.2121 22.6136 21.9394 24.0227 20C25.447 18.0455 27.3561 16.5303 29.75 15.4545C32.1591 14.3636 34.8485 13.8182 37.8182 13.8182C40.8182 13.8182 43.4848 14.3561 45.8182 15.4318C48.1515 16.4924 50 17.947 51.3636 19.7955C52.7424 21.6439 53.4697 23.7424 53.5455 26.0909H48.0909Z" fill="black"/>
</svg>
