<svg width="160" height="75" viewBox="0 0 160 75" fill="none" xmlns="http://www.w3.org/2000/svg">
<rect x="1" y="1" width="158" height="73" rx="14" stroke="black" stroke-width="2"/>
<path d="M7.71591 53H4.02273L14.7045 23.9091H18.3409L29.0227 53H25.3295L16.6364 28.5114H16.4091L7.71591 53ZM9.07955 41.6364H23.9659V44.7614H9.07955V41.6364ZM55.5959 33H52.0732C51.8648 31.9867 51.5002 31.0966 50.9794 30.3295C50.468 29.5625 49.843 28.9186 49.1044 28.3977C48.3752 27.8674 47.5656 27.4697 46.6754 27.2045C45.7853 26.9394 44.8572 26.8068 43.8913 26.8068C42.13 26.8068 40.5343 27.2519 39.1044 28.142C37.6839 29.0322 36.5523 30.3438 35.7095 32.0767C34.8762 33.8097 34.4595 35.9356 34.4595 38.4545C34.4595 40.9735 34.8762 43.0994 35.7095 44.8324C36.5523 46.5653 37.6839 47.8769 39.1044 48.767C40.5343 49.6572 42.13 50.1023 43.8913 50.1023C44.8572 50.1023 45.7853 49.9697 46.6754 49.7045C47.5656 49.4394 48.3752 49.0464 49.1044 48.5256C49.843 47.9953 50.468 47.3466 50.9794 46.5795C51.5002 45.803 51.8648 44.9129 52.0732 43.9091H55.5959C55.3307 45.3958 54.8478 46.7263 54.147 47.9006C53.4463 49.0748 52.575 50.0739 51.5334 50.8977C50.4917 51.7121 49.3222 52.3324 48.0249 52.7585C46.737 53.1847 45.3591 53.3977 43.8913 53.3977C41.4103 53.3977 39.2038 52.7917 37.272 51.5795C35.3402 50.3674 33.8203 48.6439 32.7124 46.4091C31.6044 44.1742 31.0504 41.5227 31.0504 38.4545C31.0504 35.3864 31.6044 32.7348 32.7124 30.5C33.8203 28.2652 35.3402 26.5417 37.272 25.3295C39.2038 24.1174 41.4103 23.5114 43.8913 23.5114C45.3591 23.5114 46.737 23.7244 48.0249 24.1506C49.3222 24.5767 50.4917 25.2017 51.5334 26.0256C52.575 26.84 53.4463 27.8343 54.147 29.0085C54.8478 30.1733 55.3307 31.5038 55.5959 33ZM84.6974 33H81.1747C80.9664 31.9867 80.6018 31.0966 80.081 30.3295C79.5696 29.5625 78.9446 28.9186 78.206 28.3977C77.4768 27.8674 76.6671 27.4697 75.777 27.2045C74.8868 26.9394 73.9588 26.8068 72.9929 26.8068C71.2315 26.8068 69.6359 27.2519 68.206 28.142C66.7855 29.0322 65.6539 30.3438 64.8111 32.0767C63.9777 33.8097 63.5611 35.9356 63.5611 38.4545C63.5611 40.9735 63.9777 43.0994 64.8111 44.8324C65.6539 46.5653 66.7855 47.8769 68.206 48.767C69.6359 49.6572 71.2315 50.1023 72.9929 50.1023C73.9588 50.1023 74.8868 49.9697 75.777 49.7045C76.6671 49.4394 77.4768 49.0464 78.206 48.5256C78.9446 47.9953 79.5696 47.3466 80.081 46.5795C80.6018 45.803 80.9664 44.9129 81.1747 43.9091H84.6974C84.4323 45.3958 83.9493 46.7263 83.2486 47.9006C82.5478 49.0748 81.6766 50.0739 80.6349 50.8977C79.5933 51.7121 78.4238 52.3324 77.1264 52.7585C75.8385 53.1847 74.4607 53.3977 72.9929 53.3977C70.5118 53.3977 68.3054 52.7917 66.3736 51.5795C64.4418 50.3674 62.9219 48.6439 61.8139 46.4091C60.706 44.1742 60.152 41.5227 60.152 38.4545C60.152 35.3864 60.706 32.7348 61.8139 30.5C62.9219 28.2652 64.4418 26.5417 66.3736 25.3295C68.3054 24.1174 70.5118 23.5114 72.9929 23.5114C74.4607 23.5114 75.8385 23.7244 77.1264 24.1506C78.4238 24.5767 79.5933 25.2017 80.6349 26.0256C81.6766 26.84 82.5478 27.8343 83.2486 29.0085C83.9493 30.1733 84.4323 31.5038 84.6974 33ZM93.9126 23.9091V53H90.3899V23.9091H93.9126ZM125.521 38.4545C125.521 41.5227 124.967 44.1742 123.859 46.4091C122.751 48.6439 121.232 50.3674 119.3 51.5795C117.368 52.7917 115.161 53.3977 112.68 53.3977C110.199 53.3977 107.993 52.7917 106.061 51.5795C104.129 50.3674 102.609 48.6439 101.501 46.4091C100.393 44.1742 99.8395 41.5227 99.8395 38.4545C99.8395 35.3864 100.393 32.7348 101.501 30.5C102.609 28.2652 104.129 26.5417 106.061 25.3295C107.993 24.1174 110.199 23.5114 112.68 23.5114C115.161 23.5114 117.368 24.1174 119.3 25.3295C121.232 26.5417 122.751 28.2652 123.859 30.5C124.967 32.7348 125.521 35.3864 125.521 38.4545ZM122.112 38.4545C122.112 35.9356 121.691 33.8097 120.848 32.0767C120.015 30.3438 118.883 29.0322 117.453 28.142C116.033 27.2519 114.442 26.8068 112.68 26.8068C110.919 26.8068 109.323 27.2519 107.893 28.142C106.473 29.0322 105.341 30.3438 104.499 32.0767C103.665 33.8097 103.249 35.9356 103.249 38.4545C103.249 40.9735 103.665 43.0994 104.499 44.8324C105.341 46.5653 106.473 47.8769 107.893 48.767C109.323 49.6572 110.919 50.1023 112.68 50.1023C114.442 50.1023 116.033 49.6572 117.453 48.767C118.883 47.8769 120.015 46.5653 120.848 44.8324C121.691 43.0994 122.112 40.9735 122.112 38.4545ZM111.146 20.9545L114.612 14.3636H118.533L114.101 20.9545H111.146ZM154.513 23.9091V53H151.104L135.251 30.1591H134.967V53H131.445V23.9091H134.854L150.763 46.8068H151.047V23.9091H154.513Z" fill="black"/>
</svg>
