<svg width="160" height="55" viewBox="0 0 160 55" fill="none" xmlns="http://www.w3.org/2000/svg">
<rect x="1" y="1" width="158" height="53" rx="14" stroke="black" stroke-width="2"/>
<path d="M13.8182 15.7273H17.1818L25.0909 35.0455H25.3636L33.2727 15.7273H36.6364V39H34V21.3182H33.7727L26.5 39H23.9545L16.6818 21.3182H16.4545V39H13.8182V15.7273ZM42.2869 39V15.7273H56.3324V18.2273H45.1051V26.0909H55.6051V28.5909H45.1051V36.5H56.5142V39H42.2869ZM61.4119 39V15.7273H64.2301V36.5H75.0483V39H61.4119ZM98.142 27.3636C98.142 29.8182 97.6989 31.9394 96.8125 33.7273C95.9261 35.5152 94.7102 36.8939 93.1648 37.8636C91.6193 38.8333 89.8542 39.3182 87.8693 39.3182C85.8845 39.3182 84.1193 38.8333 82.5739 37.8636C81.0284 36.8939 79.8125 35.5152 78.9261 33.7273C78.0398 31.9394 77.5966 29.8182 77.5966 27.3636C77.5966 24.9091 78.0398 22.7879 78.9261 21C79.8125 19.2121 81.0284 17.8333 82.5739 16.8636C84.1193 15.8939 85.8845 15.4091 87.8693 15.4091C89.8542 15.4091 91.6193 15.8939 93.1648 16.8636C94.7102 17.8333 95.9261 19.2121 96.8125 21C97.6989 22.7879 98.142 24.9091 98.142 27.3636ZM95.4148 27.3636C95.4148 25.3485 95.0777 23.6477 94.4034 22.2614C93.7367 20.875 92.8314 19.8258 91.6875 19.1136C90.5511 18.4015 89.2784 18.0455 87.8693 18.0455C86.4602 18.0455 85.1837 18.4015 84.0398 19.1136C82.9034 19.8258 81.9981 20.875 81.3239 22.2614C80.6572 23.6477 80.3239 25.3485 80.3239 27.3636C80.3239 29.3788 80.6572 31.0795 81.3239 32.4659C81.9981 33.8523 82.9034 34.9015 84.0398 35.6136C85.1837 36.3258 86.4602 36.6818 87.8693 36.6818C89.2784 36.6818 90.5511 36.3258 91.6875 35.6136C92.8314 34.9015 93.7367 33.8523 94.4034 32.4659C95.0777 31.0795 95.4148 29.3788 95.4148 27.3636ZM110.062 39H102.881V15.7273H110.381C112.638 15.7273 114.57 16.1932 116.176 17.125C117.782 18.0492 119.013 19.3788 119.869 21.1136C120.725 22.8409 121.153 24.9091 121.153 27.3182C121.153 29.7424 120.722 31.8295 119.858 33.5795C118.994 35.322 117.737 36.6629 116.085 37.6023C114.434 38.5341 112.426 39 110.062 39ZM105.699 36.5H109.881C111.805 36.5 113.4 36.1288 114.665 35.3864C115.93 34.6439 116.873 33.5871 117.494 32.2159C118.116 30.8447 118.426 29.2121 118.426 27.3182C118.426 25.4394 118.119 23.822 117.506 22.4659C116.892 21.1023 115.975 20.0568 114.756 19.3295C113.536 18.5947 112.017 18.2273 110.199 18.2273H105.699V36.5ZM128.699 15.7273V39H125.881V15.7273H128.699ZM126.062 13.3636L128.835 8.09091H131.972L128.426 13.3636H126.062ZM135.304 39H132.349L140.895 15.7273H143.804L152.349 39H149.395L142.44 19.4091H142.259L135.304 39ZM136.395 29.9091H148.304V32.4091H136.395V29.9091Z" fill="black"/>
</svg>
