<svg width="75" height="75" viewBox="0 0 75 75" fill="none" xmlns="http://www.w3.org/2000/svg">
<rect x="1" y="1" width="73" height="73" rx="14" stroke="black" stroke-width="2"/>
<path d="M35 61H20.6364V14.4545H35.6364C40.1515 14.4545 44.0152 15.3864 47.2273 17.25C50.4394 19.0985 52.9015 21.7576 54.6136 25.2273C56.3258 28.6818 57.1818 32.8182 57.1818 37.6364C57.1818 42.4848 56.3182 46.6591 54.5909 50.1591C52.8636 53.6439 50.3485 56.3258 47.0455 58.2045C43.7424 60.0682 39.7273 61 35 61ZM26.2727 56H34.6364C38.4848 56 41.6742 55.2576 44.2045 53.7727C46.7348 52.2879 48.6212 50.1742 49.8636 47.4318C51.1061 44.6894 51.7273 41.4242 51.7273 37.6364C51.7273 33.8788 51.1136 30.6439 49.8864 27.9318C48.6591 25.2045 46.8258 23.1136 44.3864 21.6591C41.947 20.1894 38.9091 19.4545 35.2727 19.4545H26.2727V56Z" fill="black"/>
</svg>
